<svg width="192" height="58" viewBox="0 0 192 58" fill="none" xmlns="http://www.w3.org/2000/svg">
<rect x="0.5" y="0.5" width="191" height="57" rx="7.5" stroke="#5BBB54"/>
<path d="M60.1335 29.1818C60.1335 30.4091 59.9119 31.4697 59.4688 32.3636C59.0256 33.2576 58.4176 33.947 57.6449 34.4318C56.8722 34.9167 55.9896 35.1591 54.9972 35.1591C54.0047 35.1591 53.1222 34.9167 52.3494 34.4318C51.5767 33.947 50.9688 33.2576 50.5256 32.3636C50.0824 31.4697 49.8608 30.4091 49.8608 29.1818C49.8608 27.9545 50.0824 26.8939 50.5256 26C50.9688 25.1061 51.5767 24.4167 52.3494 23.9318C53.1222 23.447 54.0047 23.2045 54.9972 23.2045C55.9896 23.2045 56.8722 23.447 57.6449 23.9318C58.4176 24.4167 59.0256 25.1061 59.4688 26C59.9119 26.8939 60.1335 27.9545 60.1335 29.1818ZM58.7699 29.1818C58.7699 28.1742 58.6013 27.3239 58.2642 26.6307C57.9309 25.9375 57.4782 25.4129 56.9062 25.0568C56.3381 24.7008 55.7017 24.5227 54.9972 24.5227C54.2926 24.5227 53.6544 24.7008 53.0824 25.0568C52.5142 25.4129 52.0616 25.9375 51.7244 26.6307C51.3911 27.3239 51.2244 28.1742 51.2244 29.1818C51.2244 30.1894 51.3911 31.0398 51.7244 31.733C52.0616 32.4261 52.5142 32.9508 53.0824 33.3068C53.6544 33.6629 54.2926 33.8409 54.9972 33.8409C55.7017 33.8409 56.3381 33.6629 56.9062 33.3068C57.4782 32.9508 57.9309 32.4261 58.2642 31.733C58.6013 31.0398 58.7699 30.1894 58.7699 29.1818ZM66.5028 24.75H68.3438C69.2074 24.75 69.9744 24.9432 70.6449 25.3295C71.3153 25.7159 71.8419 26.2538 72.2244 26.9432C72.607 27.6326 72.7983 28.4318 72.7983 29.3409C72.7983 30.25 72.607 31.0511 72.2244 31.7443C71.8419 32.4375 71.3153 32.9792 70.6449 33.3693C69.9744 33.7595 69.2074 33.9545 68.3438 33.9545H66.5028C65.6392 33.9545 64.8722 33.7614 64.2017 33.375C63.5313 32.9886 63.0047 32.4508 62.6222 31.7614C62.2396 31.072 62.0483 30.2727 62.0483 29.3636C62.0483 28.4545 62.2396 27.6534 62.6222 26.9602C63.0047 26.267 63.5313 25.7254 64.2017 25.3352C64.8722 24.9451 65.6392 24.75 66.5028 24.75ZM66.5028 26C65.8438 26 65.2869 26.1383 64.8324 26.4148C64.3816 26.6913 64.0388 27.0814 63.804 27.5852C63.5729 28.089 63.4574 28.6818 63.4574 29.3636C63.4574 30.0379 63.5729 30.625 63.804 31.125C64.0388 31.625 64.3816 32.0133 64.8324 32.2898C65.2869 32.5663 65.8438 32.7045 66.5028 32.7045H68.3438C69.0028 32.7045 69.5578 32.5663 70.0085 32.2898C70.4631 32.0133 70.8059 31.6231 71.0369 31.1193C71.2718 30.6155 71.3892 30.0227 71.3892 29.3409C71.3892 28.6667 71.2718 28.0795 71.0369 27.5795C70.8059 27.0795 70.4631 26.6913 70.0085 26.4148C69.5578 26.1383 69.0028 26 68.3438 26H66.5028ZM68.1392 23.1591V35.4773H66.7301V23.1591H68.1392ZM84.9773 29.1818C84.9773 30.4091 84.7557 31.4697 84.3125 32.3636C83.8693 33.2576 83.2614 33.947 82.4886 34.4318C81.7159 34.9167 80.8333 35.1591 79.8409 35.1591C78.8485 35.1591 77.9659 34.9167 77.1932 34.4318C76.4205 33.947 75.8125 33.2576 75.3693 32.3636C74.9261 31.4697 74.7045 30.4091 74.7045 29.1818C74.7045 27.9545 74.9261 26.8939 75.3693 26C75.8125 25.1061 76.4205 24.4167 77.1932 23.9318C77.9659 23.447 78.8485 23.2045 79.8409 23.2045C80.8333 23.2045 81.7159 23.447 82.4886 23.9318C83.2614 24.4167 83.8693 25.1061 84.3125 26C84.7557 26.8939 84.9773 27.9545 84.9773 29.1818ZM83.6136 29.1818C83.6136 28.1742 83.4451 27.3239 83.108 26.6307C82.7746 25.9375 82.322 25.4129 81.75 25.0568C81.1818 24.7008 80.5455 24.5227 79.8409 24.5227C79.1364 24.5227 78.4981 24.7008 77.9261 25.0568C77.358 25.4129 76.9053 25.9375 76.5682 26.6307C76.2348 27.3239 76.0682 28.1742 76.0682 29.1818C76.0682 30.1894 76.2348 31.0398 76.5682 31.733C76.9053 32.4261 77.358 32.9508 77.9261 33.3068C78.4981 33.6629 79.1364 33.8409 79.8409 33.8409C80.5455 33.8409 81.1818 33.6629 81.75 33.3068C82.322 32.9508 82.7746 32.4261 83.108 31.733C83.4451 31.0398 83.6136 30.1894 83.6136 29.1818ZM87.3466 35V23.3636H91.2784C92.1913 23.3636 92.9375 23.5284 93.517 23.858C94.1004 24.1837 94.5322 24.625 94.8125 25.1818C95.0928 25.7386 95.233 26.3598 95.233 27.0455C95.233 27.7311 95.0928 28.3542 94.8125 28.9148C94.536 29.4754 94.108 29.9223 93.5284 30.2557C92.9489 30.5852 92.2064 30.75 91.3011 30.75H88.483V29.5H91.2557C91.8807 29.5 92.3826 29.392 92.7614 29.1761C93.1402 28.9602 93.4148 28.6686 93.5852 28.3011C93.7595 27.9299 93.8466 27.5114 93.8466 27.0455C93.8466 26.5795 93.7595 26.1629 93.5852 25.7955C93.4148 25.428 93.1383 25.1402 92.7557 24.9318C92.3731 24.7197 91.8655 24.6136 91.233 24.6136H88.7557V35H87.3466ZM97.5028 23.3636H99.1847L103.139 33.0227H103.276L107.23 23.3636H108.912V35H107.594V26.1591H107.48L103.844 35H102.571L98.9347 26.1591H98.821V35H97.5028V23.3636ZM111.737 23.3636H113.124V32.5227H113.237L119.601 23.3636H120.964V35H119.555V25.8636H119.442L113.101 35H111.737V23.3636ZM123.148 24.6136V23.3636H131.875V24.6136H128.216V35H126.807V24.6136H123.148ZM135.095 28.25H138.413C139.247 28.25 139.949 28.3864 140.521 28.6591C141.097 28.9318 141.533 29.3163 141.828 29.8125C142.127 30.3087 142.277 30.8939 142.277 31.5682C142.277 32.2424 142.127 32.8371 141.828 33.3523C141.533 33.8674 141.097 34.2708 140.521 34.5625C139.949 34.8542 139.247 35 138.413 35H134.05V23.3636H135.459V33.7727H138.413C138.944 33.7727 139.393 33.6667 139.76 33.4545C140.131 33.2386 140.411 32.9621 140.601 32.625C140.794 32.2841 140.891 31.9242 140.891 31.5455C140.891 30.9886 140.677 30.5095 140.249 30.108C139.821 29.7027 139.209 29.5 138.413 29.5H135.095V28.25Z" fill="#2A2A2C"/>
</svg>
