<svg width="354" height="161" viewBox="0 0 354 161" fill="none" xmlns="http://www.w3.org/2000/svg">
<path d="M31.1641 37L25.8984 30.0078H24.4766V37H21.5781V21H24.4766V27.5781H25.2031L30.8906 21H34.4609L28.1406 28.2969L34.7344 37H31.1641ZM36.5781 41.5V25H39.3594V26.9844H39.5234C39.6693 26.6927 39.875 26.3828 40.1406 26.0547C40.4063 25.7214 40.7656 25.4375 41.2188 25.2031C41.6719 24.9635 42.25 24.8438 42.9531 24.8438C43.8802 24.8438 44.7161 25.0807 45.4609 25.5547C46.2109 26.0234 46.8047 26.7187 47.2422 27.6406C47.6849 28.5573 47.9063 29.6823 47.9063 31.0156C47.9063 32.3333 47.6901 33.4531 47.2578 34.375C46.8255 35.2969 46.237 36 45.4922 36.4844C44.7474 36.9688 43.9036 37.2109 42.9609 37.2109C42.2734 37.2109 41.7031 37.0964 41.25 36.8672C40.7969 36.638 40.4323 36.362 40.1563 36.0391C39.8854 35.7109 39.6745 35.401 39.5234 35.1094H39.4063V41.5H36.5781ZM39.3516 31C39.3516 31.776 39.4609 32.4557 39.6797 33.0391C39.9036 33.6224 40.224 34.0781 40.6406 34.4062C41.0625 34.7292 41.5729 34.8906 42.1719 34.8906C42.7969 34.8906 43.3203 34.724 43.7422 34.3906C44.1641 34.0521 44.4818 33.5911 44.6953 33.0078C44.9141 32.4193 45.0234 31.75 45.0234 31C45.0234 30.2552 44.9167 29.5937 44.7031 29.0156C44.4896 28.4375 44.1719 27.9844 43.75 27.6562C43.3281 27.3281 42.8021 27.1641 42.1719 27.1641C41.5677 27.1641 41.0547 27.3229 40.6328 27.6406C40.2109 27.9583 39.8906 28.4036 39.6719 28.9766C39.4583 29.5495 39.3516 30.224 39.3516 31ZM55.6406 37.2344C54.4375 37.2344 53.3984 36.9844 52.5234 36.4844C51.6536 35.9792 50.9844 35.2656 50.5156 34.3437C50.0469 33.4167 49.8125 32.3255 49.8125 31.0703C49.8125 29.8359 50.0469 28.7526 50.5156 27.8203C50.9896 26.8828 51.651 26.1536 52.5 25.6328C53.349 25.1068 54.3464 24.8438 55.4922 24.8438C56.2318 24.8438 56.9297 24.9635 57.5859 25.2031C58.2474 25.4375 58.8307 25.8021 59.3359 26.2969C59.8464 26.7917 60.2474 27.4219 60.5391 28.1875C60.8307 28.9479 60.9766 29.8542 60.9766 30.9062V31.7734H51.1406V29.8672H58.2656C58.2604 29.3255 58.1432 28.8437 57.9141 28.4219C57.6849 27.9948 57.3646 27.6589 56.9531 27.4141C56.5469 27.1693 56.0729 27.0469 55.5312 27.0469C54.9531 27.0469 54.4453 27.1875 54.0078 27.4687C53.5703 27.7448 53.2292 28.1094 52.9844 28.5625C52.7448 29.0104 52.6224 29.5026 52.6172 30.0391V31.7031C52.6172 32.401 52.7448 33 53 33.5C53.2552 33.9948 53.612 34.375 54.0703 34.6406C54.5286 34.901 55.0651 35.0312 55.6797 35.0312C56.0911 35.0312 56.4635 34.974 56.7969 34.8594C57.1302 34.7396 57.4193 34.5651 57.6641 34.3359C57.9089 34.1068 58.0938 33.8229 58.2188 33.4844L60.8594 33.7812C60.6927 34.4792 60.375 35.0885 59.9063 35.6094C59.4427 36.125 58.849 36.526 58.125 36.8125C57.401 37.0937 56.5729 37.2344 55.6406 37.2344ZM62.3066 40.4844V34.6719H63.2598C63.515 34.474 63.7285 34.2057 63.9004 33.8672C64.0723 33.5234 64.2129 33.1198 64.3223 32.6562C64.4368 32.1875 64.5306 31.6641 64.6035 31.0859C64.6764 30.5026 64.7415 29.875 64.7988 29.2031L65.1426 25H73.8145V34.6719H75.6738V40.4844H72.9395V37H65.0879V40.4844H62.3066ZM66.166 34.6719H71.1113V27.2812H67.5957L67.4082 29.2031C67.304 30.474 67.166 31.5625 66.9941 32.4687C66.8223 33.375 66.5462 34.1094 66.166 34.6719ZM80.5117 33.1719L85.3164 25H88.2227V37H85.4883V28.8203L80.6992 37H77.7852V25H80.5117V33.1719ZM89.7832 27.3203V25H100.283V27.3203H96.4004V37H93.666V27.3203H89.7832ZM117.609 20.5625L118.594 22.3906C118.245 22.6927 117.854 22.9115 117.422 23.0469C116.99 23.1823 116.482 23.2708 115.898 23.3125C115.32 23.349 114.633 23.375 113.836 23.3906C112.94 23.4115 112.208 23.5807 111.641 23.8984C111.073 24.2161 110.638 24.6979 110.336 25.3437C110.034 25.9844 109.836 26.8021 109.742 27.7969H109.875C110.25 27.0625 110.776 26.5026 111.453 26.1172C112.13 25.7318 112.924 25.5391 113.836 25.5391C114.831 25.5391 115.708 25.763 116.469 26.2109C117.234 26.6536 117.831 27.2969 118.258 28.1406C118.69 28.9844 118.906 30.0052 118.906 31.2031C118.906 32.4375 118.674 33.5078 118.211 34.4141C117.747 35.3151 117.089 36.0104 116.234 36.5C115.385 36.9896 114.378 37.2344 113.211 37.2344C112.049 37.2344 111.039 36.9818 110.18 36.4766C109.326 35.9661 108.664 35.2135 108.195 34.2188C107.732 33.2187 107.5 31.987 107.5 30.5234V29.4453C107.5 26.6224 108.026 24.5156 109.078 23.125C110.13 21.7344 111.69 21.026 113.758 21C114.372 20.9896 114.922 20.987 115.406 20.9922C115.896 20.9974 116.323 20.974 116.688 20.9219C117.052 20.8698 117.359 20.75 117.609 20.5625ZM113.227 34.9687C113.805 34.9687 114.305 34.8203 114.727 34.5234C115.148 34.2214 115.471 33.7943 115.695 33.2422C115.924 32.6901 116.039 32.0365 116.039 31.2812C116.039 30.5365 115.924 29.9036 115.695 29.3828C115.466 28.8568 115.141 28.4557 114.719 28.1797C114.297 27.9036 113.794 27.7656 113.211 27.7656C112.773 27.7656 112.38 27.8437 112.031 28C111.682 28.1562 111.385 28.3854 111.141 28.6875C110.896 28.9896 110.708 29.3568 110.578 29.7891C110.448 30.2214 110.378 30.7187 110.367 31.2812C110.367 32.4115 110.622 33.3099 111.133 33.9766C111.643 34.638 112.341 34.9687 113.227 34.9687ZM126.625 37.2344C125.422 37.2344 124.383 36.9844 123.508 36.4844C122.638 35.9792 121.969 35.2656 121.5 34.3437C121.031 33.4167 120.797 32.3255 120.797 31.0703C120.797 29.8359 121.031 28.7526 121.5 27.8203C121.974 26.8828 122.635 26.1536 123.484 25.6328C124.333 25.1068 125.331 24.8438 126.477 24.8438C127.216 24.8438 127.914 24.9635 128.57 25.2031C129.232 25.4375 129.815 25.8021 130.32 26.2969C130.831 26.7917 131.232 27.4219 131.523 28.1875C131.815 28.9479 131.961 29.8542 131.961 30.9062V31.7734H122.125V29.8672H129.25C129.245 29.3255 129.128 28.8437 128.898 28.4219C128.669 27.9948 128.349 27.6589 127.938 27.4141C127.531 27.1693 127.057 27.0469 126.516 27.0469C125.938 27.0469 125.43 27.1875 124.992 27.4687C124.555 27.7448 124.214 28.1094 123.969 28.5625C123.729 29.0104 123.607 29.5026 123.602 30.0391V31.7031C123.602 32.401 123.729 33 123.984 33.5C124.24 33.9948 124.596 34.375 125.055 34.6406C125.513 34.901 126.049 35.0312 126.664 35.0312C127.076 35.0312 127.448 34.974 127.781 34.8594C128.115 34.7396 128.404 34.5651 128.648 34.3359C128.893 34.1068 129.078 33.8229 129.203 33.4844L131.844 33.7812C131.677 34.4792 131.359 35.0885 130.891 35.6094C130.427 36.125 129.833 36.526 129.109 36.8125C128.385 37.0937 127.557 37.2344 126.625 37.2344ZM133.689 33.7109H136.494C136.52 34.1589 136.721 34.5052 137.096 34.75C137.471 34.9948 137.958 35.1172 138.557 35.1172C139.166 35.1172 139.679 34.9844 140.096 34.7187C140.518 34.4479 140.729 34.0391 140.729 33.4922C140.729 33.1693 140.648 32.8854 140.486 32.6406C140.325 32.3906 140.098 32.1979 139.807 32.0625C139.515 31.9271 139.171 31.8594 138.775 31.8594H136.939V29.8516H138.775C139.364 29.8516 139.809 29.7161 140.111 29.4453C140.419 29.1745 140.572 28.8333 140.572 28.4219C140.572 27.9792 140.411 27.6198 140.088 27.3437C139.77 27.0677 139.33 26.9297 138.768 26.9297C138.205 26.9297 137.736 27.0573 137.361 27.3125C136.992 27.5677 136.799 27.8958 136.783 28.2969H133.994C134.005 27.599 134.213 26.9922 134.619 26.4766C135.031 25.9609 135.583 25.5599 136.275 25.2734C136.973 24.987 137.76 24.8438 138.635 24.8438C139.572 24.8438 140.382 24.9844 141.064 25.2656C141.747 25.5469 142.273 25.9401 142.643 26.4453C143.012 26.9453 143.197 27.5339 143.197 28.2109C143.197 28.862 142.994 29.401 142.588 29.8281C142.182 30.25 141.635 30.5521 140.947 30.7344V30.8594C141.421 30.8854 141.848 31.0208 142.229 31.2656C142.609 31.5052 142.911 31.8307 143.135 32.2422C143.359 32.6536 143.471 33.1302 143.471 33.6719C143.471 34.4062 143.26 35.0417 142.838 35.5781C142.416 36.1094 141.835 36.5182 141.096 36.8047C140.361 37.0911 139.52 37.2344 138.572 37.2344C137.65 37.2344 136.825 37.0964 136.096 36.8203C135.372 36.5391 134.796 36.1354 134.369 35.6094C133.942 35.0833 133.715 34.4505 133.689 33.7109ZM20.3906 66.4844V60.6719H21.3438C21.599 60.474 21.8125 60.2057 21.9844 59.8672C22.1563 59.5234 22.2969 59.1198 22.4062 58.6562C22.5208 58.1875 22.6146 57.6641 22.6875 57.0859C22.7604 56.5026 22.8255 55.875 22.8828 55.2031L23.2266 51H31.8984V60.6719H33.7578V66.4844H31.0234V63H23.1719V66.4844H20.3906ZM24.25 60.6719H29.1953V53.2812H25.6797L25.4922 55.2031C25.388 56.474 25.25 57.5625 25.0781 58.4687C24.9063 59.375 24.6302 60.1094 24.25 60.6719ZM41.1035 63.2344C39.9316 63.2344 38.916 62.9766 38.0566 62.4609C37.1973 61.9453 36.5306 61.224 36.0566 60.2969C35.5879 59.3698 35.3535 58.2865 35.3535 57.0469C35.3535 55.8073 35.5879 54.7214 36.0566 53.7891C36.5306 52.8568 37.1973 52.1328 38.0566 51.6172C38.916 51.1016 39.9316 50.8438 41.1035 50.8438C42.2754 50.8438 43.291 51.1016 44.1504 51.6172C45.0098 52.1328 45.6738 52.8568 46.1426 53.7891C46.6165 54.7214 46.8535 55.8073 46.8535 57.0469C46.8535 58.2865 46.6165 59.3698 46.1426 60.2969C45.6738 61.224 45.0098 61.9453 44.1504 62.4609C43.291 62.9766 42.2754 63.2344 41.1035 63.2344ZM41.1191 60.9687C41.7546 60.9687 42.2858 60.7943 42.7129 60.4453C43.14 60.0911 43.4577 59.6172 43.666 59.0234C43.8796 58.4297 43.9863 57.7682 43.9863 57.0391C43.9863 56.3047 43.8796 55.6406 43.666 55.0469C43.4577 54.4479 43.14 53.9714 42.7129 53.6172C42.2858 53.263 41.7546 53.0859 41.1191 53.0859C40.4681 53.0859 39.9264 53.263 39.4941 53.6172C39.0671 53.9714 38.7467 54.4479 38.5332 55.0469C38.3249 55.6406 38.2207 56.3047 38.2207 57.0391C38.2207 57.7682 38.3249 58.4297 38.5332 59.0234C38.7467 59.6172 39.0671 60.0911 39.4941 60.4453C39.9264 60.7943 40.4681 60.9687 41.1191 60.9687ZM49.2539 63V51H52.082V55.8437H53.1133L56.7227 51H60.1289L55.6836 56.8906L60.1758 63H56.7539L53.4648 58.4766H52.082V63H49.2539ZM63.666 67.5C63.2806 67.5 62.9238 67.4688 62.5957 67.4063C62.2728 67.349 62.015 67.2813 61.8223 67.2031L62.4785 65C62.89 65.1198 63.2572 65.1771 63.5801 65.1719C63.903 65.1667 64.1868 65.0651 64.4316 64.8672C64.6816 64.6745 64.8926 64.3516 65.0645 63.8984L65.3066 63.25L60.9551 51H63.9551L66.7207 60.0625H66.8457L69.6191 51H72.627L67.8223 64.4531C67.5983 65.0885 67.3014 65.6328 66.9316 66.0859C66.5618 66.5443 66.1087 66.8932 65.5723 67.1328C65.041 67.3776 64.4056 67.5 63.666 67.5ZM81.4902 59.7109L85.0527 51H87.334L82.4824 63H80.5059L75.7637 51H78.0215L81.4902 59.7109ZM77.3105 51V63H74.584V51H77.3105ZM85.7871 63V51H88.4902V63H85.7871ZM96.6543 63.2344C95.4512 63.2344 94.4121 62.9844 93.5371 62.4844C92.6673 61.9792 91.998 61.2656 91.5293 60.3437C91.0605 59.4167 90.8262 58.3255 90.8262 57.0703C90.8262 55.8359 91.0605 54.7526 91.5293 53.8203C92.0033 52.8828 92.6647 52.1536 93.5137 51.6328C94.3626 51.1068 95.36 50.8438 96.5059 50.8438C97.2454 50.8438 97.9434 50.9635 98.5996 51.2031C99.2611 51.4375 99.8444 51.8021 100.35 52.2969C100.86 52.7917 101.261 53.4219 101.553 54.1875C101.844 54.9479 101.99 55.8542 101.99 56.9062V57.7734H92.1543V55.8672H99.2793C99.2741 55.3255 99.1569 54.8437 98.9277 54.4219C98.6986 53.9948 98.3783 53.6589 97.9668 53.4141C97.5605 53.1693 97.0866 53.0469 96.5449 53.0469C95.9668 53.0469 95.459 53.1875 95.0215 53.4687C94.584 53.7448 94.2428 54.1094 93.998 54.5625C93.7585 55.0104 93.6361 55.5026 93.6309 56.0391V57.7031C93.6309 58.401 93.7585 59 94.0137 59.5C94.2689 59.9948 94.6257 60.375 95.084 60.6406C95.5423 60.901 96.0788 61.0312 96.6934 61.0312C97.1048 61.0312 97.4772 60.974 97.8105 60.8594C98.1439 60.7396 98.4329 60.5651 98.6777 60.3359C98.9225 60.1068 99.1074 59.8229 99.2324 59.4844L101.873 59.7812C101.706 60.4792 101.389 61.0885 100.92 61.6094C100.456 62.125 99.8626 62.526 99.1387 62.8125C98.4147 63.0937 97.5866 63.2344 96.6543 63.2344ZM112.625 55.8281V58.1484H106.234V55.8281H112.625ZM107.109 51V63H104.383V51H107.109ZM114.477 51V63H111.758V51H114.477ZM115.994 53.3203V51H126.494V53.3203H122.611V63H119.877V53.3203H115.994ZM133.486 63.2344C132.314 63.2344 131.299 62.9766 130.439 62.4609C129.58 61.9453 128.913 61.224 128.439 60.2969C127.971 59.3698 127.736 58.2865 127.736 57.0469C127.736 55.8073 127.971 54.7214 128.439 53.7891C128.913 52.8568 129.58 52.1328 130.439 51.6172C131.299 51.1016 132.314 50.8438 133.486 50.8438C134.658 50.8438 135.674 51.1016 136.533 51.6172C137.393 52.1328 138.057 52.8568 138.525 53.7891C138.999 54.7214 139.236 55.8073 139.236 57.0469C139.236 58.2865 138.999 59.3698 138.525 60.2969C138.057 61.224 137.393 61.9453 136.533 62.4609C135.674 62.9766 134.658 63.2344 133.486 63.2344ZM133.502 60.9687C134.137 60.9687 134.669 60.7943 135.096 60.4453C135.523 60.0911 135.84 59.6172 136.049 59.0234C136.262 58.4297 136.369 57.7682 136.369 57.0391C136.369 56.3047 136.262 55.6406 136.049 55.0469C135.84 54.4479 135.523 53.9714 135.096 53.6172C134.669 53.263 134.137 53.0859 133.502 53.0859C132.851 53.0859 132.309 53.263 131.877 53.6172C131.45 53.9714 131.13 54.4479 130.916 55.0469C130.708 55.6406 130.604 56.3047 130.604 57.0391C130.604 57.7682 130.708 58.4297 130.916 59.0234C131.13 59.6172 131.45 60.0911 131.877 60.4453C132.309 60.7943 132.851 60.9687 133.502 60.9687ZM141.637 63V51H146.676C148.098 51 149.22 51.2839 150.043 51.8516C150.871 52.4193 151.285 53.2109 151.285 54.2266C151.285 54.8984 151.051 55.4479 150.582 55.875C150.118 56.2969 149.486 56.5807 148.684 56.7266C149.314 56.7786 149.866 56.9375 150.34 57.2031C150.819 57.4687 151.194 57.8177 151.465 58.25C151.736 58.6823 151.871 59.1797 151.871 59.7422C151.871 60.4036 151.697 60.9792 151.348 61.4687C151.004 61.9531 150.501 62.3307 149.84 62.6016C149.184 62.8672 148.387 63 147.449 63H141.637ZM144.285 60.7734H147.449C147.97 60.7734 148.379 60.651 148.676 60.4062C148.973 60.1562 149.121 59.8177 149.121 59.3906C149.121 58.8958 148.973 58.5078 148.676 58.2266C148.379 57.9401 147.97 57.7969 147.449 57.7969H144.285V60.7734ZM144.285 55.9687H146.73C147.116 55.9687 147.447 55.9141 147.723 55.8047C147.999 55.6901 148.21 55.5313 148.355 55.3281C148.501 55.1198 148.574 54.8724 148.574 54.5859C148.574 54.1745 148.405 53.8516 148.066 53.6172C147.733 53.3828 147.27 53.2656 146.676 53.2656H144.285V55.9687Z" fill="#1E1E1F"/>
<circle cx="36" cy="133" r="20" fill="white"/>
<path d="M34.4 128.2L39.2 133L34.4 137.8" stroke="#626265" stroke-width="2" stroke-linecap="round" stroke-linejoin="round"/>
</svg>
